HIERARCHY
ROOT Hips
{
	OFFSET 0.000000 0.000000 0.000000 
	CHANNELS 6 Xposition Yposition Zposition Zrotation Yrotation Xrotation
	JOINT LeftUpLeg
	{
		OFFSET 1.363060 -1.794630 0.839290 
		CHANNELS 3 Zrotation Yrotation Xrotation
		JOINT LeftLeg
		{
			OFFSET 2.448110 -6.726130 0.000000 
			CHANNELS 3 Zrotation Yrotation Xrotation
			JOINT LeftFoot
			{
				OFFSET 2.562200 -7.039590 0.000000 
				CHANNELS 3 Zrotation Yrotation Xrotation
				JOINT LeftToeBase
				{
					OFFSET 0.157640 -0.433110 2.322550 
					CHANNELS 3 Zrotation Yrotation Xrotation
					End Site
					{
						OFFSET 0.000000 0.000000 0.000000 
					}
				}
			}
		}
	}
	JOINT RightUpLeg
	{
		OFFSET -1.305520 -1.794630 0.839290 
		CHANNELS 3 Zrotation Yrotation Xrotation
		JOINT RightLeg
		{
			OFFSET -2.542530 -6.985550 0.000000 
			CHANNELS 3 Zrotation Yrotation Xrotation
			JOINT RightFoot
			{
				OFFSET -2.568260 -7.056230 0.000000 
				CHANNELS 3 Zrotation Yrotation Xrotation
				JOINT RightToeBase
				{
					OFFSET -0.164730 -0.452590 2.363150 
					CHANNELS 3 Zrotation Yrotation Xrotation
					End Site
					{
						OFFSET 0.000000 0.000000 0.000000 
					}
				}
			}
		}
	}
	JOINT Spine
	{
		OFFSET 0.028270 2.035590 -0.193380 
		CHANNELS 3 Zrotation Yrotation Xrotation
		JOINT Spine1
		{
			OFFSET 0.056720 2.048850 -0.042750 
			CHANNELS 3 Zrotation Yrotation Xrotation
			JOINT Neck1
			{
				OFFSET -0.054170 1.746240 0.172020 
				CHANNELS 3 Zrotation Yrotation Xrotation
				JOINT Head
				{
					OFFSET 0.104070 1.761360 -0.123970 
					CHANNELS 3 Zrotation Yrotation Xrotation
					End Site
					{
						OFFSET 0.000000 0.000000 0.000000 
					}
				}
			}
			JOINT LeftArm
			{
				OFFSET 3.362410 1.200890 -0.311210 
				CHANNELS 3 Zrotation Yrotation Xrotation
				JOINT LeftForeArm
				{
					OFFSET 4.983000 -0.000000 -0.000000 
					CHANNELS 3 Zrotation Yrotation Xrotation
					JOINT LeftHand
					{
						OFFSET 3.483560 -0.000000 -0.000000 
						CHANNELS 3 Zrotation Yrotation Xrotation
						JOINT LeftHandIndex1
						{
							OFFSET 0.715260 -0.000000 -0.000000 
							CHANNELS 3 Zrotation Yrotation Xrotation
							End Site
							{
								OFFSET 0.000000 0.000000 0.000000 
							}
						}
					}
				}
			}
			JOINT RightArm
			{
				OFFSET -3.136600 1.374050 -0.404650 
				CHANNELS 3 Zrotation Yrotation Xrotation
				JOINT RightForeArm
				{
					OFFSET -5.241900 -0.000000 -0.000000 
					CHANNELS 3 Zrotation Yrotation Xrotation
					JOINT RightHand
					{
						OFFSET -3.444170 -0.000000 -0.000000 
						CHANNELS 3 Zrotation Yrotation Xrotation
						JOINT RightHandIndex1
						{
							OFFSET -0.622530 -0.000000 -0.000000 
							CHANNELS 3 Zrotation Yrotation Xrotation
							End Site
							{
								OFFSET 0.000000 0.000000 0.000000 
							}
						}
					}
				}
			}
		}
	}
}
MOTION
Frames: 6
Frame Time: 0.041667
9.514819 18.141249 -41.337006 -0.363484 -6.468253 3.327693 -13.915895 -5.334257 -18.541928 0.322002 12.454846 34.371088 0.451692 2.768352 7.464269 0.234400 3.116300 8.602600 25.002623 7.933101 0.964804 1.676958 -8.010486 26.916294 7.610105 -26.920300 -21.232948 -0.012300 -0.715400 1.965900 -0.485183 5.054881 -2.520207 -7.035379 1.960882 -9.719436 10.056705 0.729209 11.634178 1.488000 0.736200 4.341700 4.181329 -33.402995 -74.183502 16.314177 -20.865512 -2.938814 0.696384 0.648425 41.500604 -7.125000 0.000000 0.000000 41.934020 -7.502527 40.615289 -15.906762 20.148637 -5.082980 0.321395 -0.825124 46.997486 7.125000 0.000000 0.000000 
9.434369 18.111984 -41.413902 -0.222953 -4.875963 3.050391 -13.870566 -5.561101 -18.800272 0.387855 12.564690 34.685562 0.802926 1.855015 7.629090 0.215000 2.985100 8.237100 25.474377 7.698383 1.361093 1.784638 -7.864688 26.601641 7.712176 -27.622077 -22.380418 -0.022100 -0.959300 2.636900 -0.663862 5.121236 -2.378732 -6.948456 2.013631 -9.996319 10.437187 -0.318240 11.887575 1.719200 0.222200 4.450500 5.182406 -34.902606 -74.080487 16.541796 -21.344330 -3.049907 0.581335 0.736830 40.136270 -7.125000 0.000000 0.000000 43.337349 -6.740424 39.736776 -15.980256 20.242649 -5.120302 0.313832 -0.850630 49.058875 7.125000 0.000000 0.000000 
9.351668 18.078216 -41.489376 -0.174147 -3.187559 2.842236 -13.733061 -5.897723 -19.097419 0.457621 12.689466 35.000697 1.081579 1.120090 7.725602 0.159700 2.574500 7.096300 26.057392 7.373800 1.639242 1.902772 -7.742253 26.376435 7.522046 -27.834663 -24.056195 -0.092700 -1.963800 5.405500 -1.024736 5.181948 -2.806021 -7.104599 2.007411 -10.702181 11.051772 -1.452073 12.541247 1.828400 -0.280800 4.149300 5.767598 -36.569589 -73.178083 16.867524 -21.929660 -3.204203 0.482402 0.805499 38.935186 -7.125000 0.000000 0.000000 45.154745 -6.266490 39.016361 -16.074254 20.367796 -5.157834 0.307601 -0.865396 50.332865 7.125000 0.000000 0.000000 
9.269677 18.045752 -41.556319 -0.101235 -1.501621 2.624265 -13.668336 -6.225253 -19.444853 0.559707 12.846073 35.410934 1.250540 0.647476 7.248484 0.016100 0.818500 2.249600 26.557517 6.990016 1.779916 2.007878 -7.644551 26.234834 7.152663 -27.715732 -25.876121 -0.264000 -3.305700 9.130900 -0.731508 5.112346 -2.233524 -6.673905 2.044852 -10.446621 11.385224 -2.281110 12.678554 2.071500 -0.707200 4.257100 6.302387 -38.089349 -73.577243 17.403631 -22.774899 -3.431738 0.397746 0.865627 38.209032 -7.125000 0.000000 0.000000 46.039389 -5.144483 38.308047 -16.200827 20.538230 -5.225512 0.301982 -0.865760 51.023768 7.125000 0.000000 0.000000 
9.191004 18.011036 -41.619708 0.024368 0.092823 2.510776 -13.667697 -6.541754 -19.886915 0.656534 13.004523 35.860759 1.709407 -0.638373 7.766956 0.050700 1.453500 3.997500 26.978916 6.423078 1.701081 2.076422 -7.591740 26.184077 6.826002 -27.641608 -27.409704 -0.433000 -4.222700 11.704000 -0.992597 5.121733 -2.181964 -6.689389 2.059387 -10.560568 11.655000 -3.204843 12.966122 2.213200 -1.154300 4.376100 6.528770 -39.550290 -72.105238 18.156310 -23.844144 -3.754349 0.277225 0.922597 36.259161 -7.125000 0.000000 0.000000 47.702239 -4.426303 37.376793 -16.382946 20.744697 -5.280324 0.308050 -0.884180 51.181898 7.125000 0.000000 0.000000 
9.120743 17.970752 -41.679068 0.052973 1.682110 2.376264 -13.656513 -6.827035 -20.315090 0.774221 13.183011 36.353057 2.008157 -1.525280 7.896609 0.052700 1.481300 4.074100 27.457220 5.663918 1.497190 2.113949 -7.580440 26.228396 6.542579 -27.671110 -28.806064 -0.532500 -4.675800 12.986200 -1.206259 5.181074 -2.157621 -6.777571 2.083920 -10.659277 11.800040 -4.186444 13.177451 2.299800 -1.639600 4.440100 6.408997 -41.050341 -70.067934 19.063834 -25.055078 -4.153899 0.160273 0.965687 34.004085 -7.125000 0.000000 0.000000 49.400526 -3.868133 36.525785 -16.620338 21.016558 -5.350819 0.315212 -0.893421 50.928016 7.125000 0.000000 0.000000 
